<svg xmlns="http://www.w3.org/2000/svg" xmlns:xlink="http://www.w3.org/1999/xlink" width="500" zoomAndPan="magnify" viewBox="0 0 375 374.999991" height="500" preserveAspectRatio="xMidYMid meet" version="1.0"><defs><clipPath id="41a3c58374"><path d="M 202 26.023438 L 337.464844 26.023438 L 337.464844 161.773438 L 202 161.773438 Z M 202 26.023438 " clip-rule="nonzero"/></clipPath></defs><g clip-path="url(#41a3c58374)"><path fill="#202424" d="M 269.9375 26.273438 C 232.636719 26.273438 202.390625 53.992188 202.390625 88.195312 C 202.390625 101.613281 207.09375 114 215.019531 124.148438 L 202.820312 153.589844 C 201.632812 156.464844 202.996094 159.75 205.867188 160.945312 C 207.304688 161.539062 208.84375 161.5 210.175781 160.945312 L 246.09375 146.066406 C 253.511719 148.640625 261.53125 150.117188 269.9375 150.117188 C 307.253906 150.117188 337.488281 122.382812 337.488281 88.195312 C 337.488281 53.992188 307.253906 26.273438 269.9375 26.273438 Z M 241.792969 96.640625 C 237.125 96.640625 233.351562 92.859375 233.351562 88.195312 C 233.351562 83.523438 237.125 79.75 241.792969 79.75 C 246.457031 79.75 250.238281 83.523438 250.238281 88.195312 C 250.238281 92.859375 246.457031 96.640625 241.792969 96.640625 Z M 269.9375 96.640625 C 265.273438 96.640625 261.496094 92.859375 261.496094 88.195312 C 261.496094 83.523438 265.273438 79.75 269.9375 79.75 C 274.601562 79.75 278.382812 83.523438 278.382812 88.195312 C 278.382812 92.859375 274.601562 96.640625 269.9375 96.640625 Z M 298.085938 96.640625 C 293.417969 96.640625 289.640625 92.859375 289.640625 88.195312 C 289.640625 83.523438 293.417969 79.75 298.085938 79.75 C 302.746094 79.75 306.527344 83.523438 306.527344 88.195312 C 306.527344 92.859375 302.746094 96.640625 298.085938 96.640625 Z M 298.085938 96.640625 " fill-opacity="1" fill-rule="nonzero"/></g><path fill="#ea9f31" d="M 231.457031 317.226562 C 231.457031 317.226562 231.878906 333.304688 231.457031 337.957031 C 231.03125 342.609375 209.878906 343.457031 208.1875 340.496094 C 206.496094 337.535156 203.535156 328.226562 203.535156 328.226562 C 203.535156 328.226562 200.570312 338.378906 197.609375 342.609375 C 194.648438 346.84375 176.035156 346.84375 174.765625 342.1875 C 173.496094 337.535156 168.84375 329.496094 168.84375 329.496094 L 130.34375 327.382812 C 130.34375 327.382812 125.265625 339.226562 123.574219 341.765625 C 121.882812 344.304688 99.457031 343.878906 99.035156 340.074219 C 98.613281 336.265625 97.34375 326.957031 97.34375 326.957031 C 97.34375 326.957031 89.304688 337.535156 86.765625 340.917969 C 84.226562 344.304688 61.804688 342.613281 60.535156 337.957031 C 59.265625 333.304688 63.496094 312.148438 63.496094 312.148438 C 63.496094 312.148438 52.5 290.152344 57.574219 238.960938 C 58.503906 229.574219 60.480469 221.609375 63.183594 214.859375 C 59.417969 210.71875 54.5 203.8125 52.074219 194.113281 C 47.84375 177.191406 49.539062 157.308594 55.035156 154.347656 C 60.535156 151.386719 76.613281 161.539062 87.191406 174.230469 C 90.347656 178.019531 92.550781 181.15625 94.101562 183.707031 C 102.238281 180.828125 110.144531 180.429688 115.960938 181.421875 C 121.25 182.324219 126.574219 183.984375 131.628906 186.335938 C 133.144531 183.535156 136.21875 179.121094 142.492188 172.957031 C 154.277344 161.375 171.28125 152.867188 176.460938 156.363281 C 181.636719 159.855469 181.347656 179.808594 175.457031 196.226562 C 171.449219 207.40625 164.324219 214.320312 160.179688 217.605469 C 165.023438 230.617188 163.34375 233.035156 163.34375 233.035156 C 163.34375 233.035156 209.878906 221.613281 233.570312 252.074219 C 257.261719 282.535156 231.457031 317.226562 231.457031 317.226562 Z M 231.457031 317.226562 " fill-opacity="1" fill-rule="nonzero"/><path fill="#8a4421" d="M 65.132812 201.765625 C 59.921875 188.886719 60.332031 178.601562 61.324219 172.820312 C 61.796875 170.078125 64.882812 168.574219 67.3125 169.925781 C 76.273438 174.90625 82.042969 182.023438 84.679688 185.804688 C 85.59375 187.117188 85.21875 188.917969 83.84375 189.734375 C 77.871094 193.269531 72.828125 198.796875 69.882812 202.453125 C 68.550781 204.101562 65.925781 203.726562 65.132812 201.765625 Z M 161.234375 206.652344 C 168.25 193.023438 168.828125 181.683594 168.316406 175.230469 C 168.074219 172.167969 164.835938 170.207031 162.027344 171.449219 C 151.683594 176.027344 144.628906 183.265625 141.355469 187.15625 C 140.222656 188.507812 140.453125 190.523438 141.878906 191.558594 C 148.089844 196.042969 153.078125 202.621094 155.949219 206.933594 C 157.242188 208.875 160.164062 208.730469 161.234375 206.652344 Z M 161.234375 206.652344 " fill-opacity="1" fill-rule="nonzero"/><path fill="#fffcfc" d="M 97.96875 331.613281 L 128.492188 331.613281 C 126.863281 335.277344 124.597656 340.226562 123.574219 341.765625 C 121.882812 344.304688 99.457031 343.878906 99.035156 340.074219 C 98.8125 338.058594 98.351562 334.511719 97.96875 331.613281 Z M 60.535156 337.957031 C 61.804688 342.609375 84.226562 344.304688 86.765625 340.917969 C 88.191406 339.019531 91.34375 334.863281 93.835938 331.574219 C 82.222656 331.339844 69.785156 326.984375 61.523438 323.4375 C 60.632812 329.273438 59.90625 335.648438 60.535156 337.957031 Z M 231.457031 317.226562 C 231.457031 317.226562 253.125 288.0625 238.464844 259.734375 C 238.101562 259.863281 237.75 259.953125 237.378906 260.113281 C 230.609375 263.074219 229.339844 276.613281 225.109375 277.035156 C 220.878906 277.457031 211.996094 254.613281 198.457031 260.535156 C 184.917969 266.457031 188.847656 295.058594 202.6875 311.304688 C 212.417969 322.726562 220.035156 323.574219 231.457031 317.226562 Z M 162.757812 225.644531 C 149.554688 231.558594 125.824219 239.78125 118.921875 226.269531 C 113.910156 216.46875 115.804688 195.289062 117.722656 181.773438 C 117.136719 181.65625 116.546875 181.523438 115.957031 181.421875 C 112.976562 180.914062 109.441406 180.78125 105.613281 181.144531 C 102.8125 193.90625 97.34375 216.398438 92.265625 222.882812 C 85.882812 231.039062 74.722656 232.921875 59.570312 226.59375 C 58.699219 230.421875 58.015625 234.523438 57.574219 238.960938 C 56.546875 249.304688 56.1875 258.441406 56.25 266.460938 C 59.511719 276.863281 64.261719 287.789062 71.113281 296.074219 C 84.28125 311.996094 94.804688 315.957031 100.726562 308.34375 C 105.84375 301.765625 123.503906 278.195312 139.226562 260.113281 C 156.148438 240.652344 162.917969 234.304688 162.917969 234.304688 L 165.027344 232.675781 C 163.953125 232.890625 163.339844 233.035156 163.339844 233.035156 C 163.339844 233.035156 164.273438 231.6875 162.757812 225.644531 Z M 220.457031 331.398438 C 212.304688 332.324219 206.664062 331.792969 204.628906 331.527344 C 205.644531 334.503906 207.152344 338.683594 208.1875 340.496094 C 209.878906 343.457031 231.035156 342.609375 231.457031 337.957031 C 231.617188 336.171875 231.65625 332.710938 231.640625 329.121094 C 228.386719 330.054688 224.535156 330.9375 220.457031 331.398438 Z M 171.402344 334.25 C 172.707031 336.8125 174.144531 339.90625 174.765625 342.1875 C 176.035156 346.84375 194.648438 346.84375 197.609375 342.609375 C 199.402344 340.050781 201.1875 335.332031 202.324219 332 C 200.152344 332.832031 195.46875 334.273438 188.304688 334.574219 C 182.84375 334.800781 176.300781 334.539062 171.402344 334.25 Z M 171.402344 334.25 " fill-opacity="1" fill-rule="nonzero"/><path fill="#000000" d="M 86.320312 220.667969 C 86.316406 222.921875 84.488281 224.742188 82.238281 224.742188 C 79.988281 224.738281 78.164062 222.910156 78.167969 220.660156 C 78.171875 218.410156 79.996094 216.585938 82.25 216.589844 C 84.5 216.589844 86.320312 218.417969 86.320312 220.667969 Z M 104.820312 221.910156 C 102.199219 221.90625 100.074219 224.03125 100.070312 226.652344 C 100.066406 229.273438 102.191406 231.402344 104.8125 231.402344 C 107.433594 231.40625 109.5625 229.28125 109.5625 226.660156 C 109.566406 224.039062 107.441406 221.914062 104.820312 221.910156 Z M 123.929688 222.582031 C 123.703125 224.824219 125.335938 226.824219 127.574219 227.046875 C 129.816406 227.273438 131.816406 225.644531 132.039062 223.402344 C 132.265625 221.164062 130.636719 219.164062 128.394531 218.9375 C 126.15625 218.710938 124.15625 220.34375 123.929688 222.582031 Z M 123.929688 222.582031 " fill-opacity="1" fill-rule="nonzero"/></svg>