<svg xmlns="http://www.w3.org/2000/svg" xmlns:xlink="http://www.w3.org/1999/xlink" width="500" zoomAndPan="magnify" viewBox="0 0 375 374.999991" height="500" preserveAspectRatio="xMidYMid meet" version="1.0"><defs><g/></defs><path fill="#c29876" d="M 54.558594 187.859375 C 56.71875 181.660156 60.773438 177.421875 66.738281 174.960938 C 67.449219 174.664062 68.0625 174 68.582031 173.382812 C 69.234375 172.609375 69.597656 171.554688 70.328125 170.890625 C 72.507812 168.902344 73.8125 166.398438 75.167969 163.835938 C 76.179688 161.925781 77.855469 160.367188 79.226562 158.648438 C 79.929688 157.765625 80.757812 156.953125 81.289062 155.976562 C 83.597656 151.71875 86.875 148.535156 91.285156 146.527344 C 91.660156 146.355469 92.039062 146.113281 92.3125 145.8125 C 96.332031 141.324219 101.394531 139.191406 107.347656 138.777344 C 108.632812 138.6875 110.117188 137.992188 111.058594 137.097656 C 116.34375 132.101562 122.421875 129.976562 129.679688 131.070312 C 131.332031 131.324219 133.113281 130.582031 134.824219 130.644531 C 137.628906 130.738281 140.101562 129.589844 142.707031 128.9375 C 142.953125 128.875 143.207031 128.746094 143.449219 128.765625 C 145.769531 128.941406 146.945312 127.464844 148.300781 125.839844 C 153.953125 119.050781 161.210938 116.835938 169.75 118.902344 C 170.703125 119.132812 171.273438 118.882812 172.03125 118.402344 C 176.5 115.550781 180.972656 112.683594 186.332031 111.726562 C 186.804688 111.644531 187.28125 111.382812 187.683594 111.097656 C 194.902344 105.984375 202.472656 105.324219 210.304688 109.472656 C 211.765625 110.246094 213.214844 110.28125 214.695312 110.414062 C 217.53125 110.671875 220.140625 111.546875 222.691406 112.761719 C 224.023438 113.394531 225.472656 113.773438 226.863281 114.269531 C 227.144531 114.371094 227.464844 114.425781 227.6875 114.601562 C 231.394531 117.480469 236.148438 117.65625 240.25 119.515625 C 240.570312 119.660156 241.058594 119.539062 241.433594 119.425781 C 243.660156 118.769531 245.878906 118.089844 248.09375 117.402344 C 248.574219 117.25 249.058594 117.085938 249.484375 116.832031 C 252.429688 115.085938 255.621094 114.21875 259.023438 114.019531 C 259.535156 113.988281 260.125 113.804688 260.515625 113.484375 C 268.269531 107.140625 278.339844 106.84375 286.417969 112.707031 C 286.855469 113.023438 287.589844 113.191406 288.113281 113.082031 C 297.222656 111.179688 305.875 114.925781 310.648438 122.96875 C 311.355469 124.160156 311.75 125.539062 312.375 126.789062 C 313.007812 128.0625 313.640625 129.351562 314.457031 130.507812 C 316.289062 133.09375 318.222656 135.609375 320.144531 138.128906 C 320.386719 138.453125 320.777344 138.6875 321.136719 138.898438 C 328.554688 143.234375 332.085938 149.746094 332 158.3125 C 331.992188 158.863281 332.164062 159.496094 332.460938 159.957031 C 336.339844 166 337.226562 172.386719 334.816406 179.207031 C 334.574219 179.898438 334.585938 180.707031 334.597656 181.460938 C 334.738281 189.175781 331.613281 195.230469 325.292969 199.5625 C 317.160156 205.140625 305.976562 203.761719 298.996094 196.464844 C 298.601562 196.054688 297.949219 195.636719 297.425781 195.648438 C 290.160156 195.804688 284.347656 192.949219 279.816406 187.238281 C 278.898438 188.792969 277.980469 190.304688 277.109375 191.847656 C 276.988281 192.0625 277.074219 192.421875 277.125 192.707031 C 277.925781 197.289062 277.367188 201.667969 275.277344 205.851562 C 275.078125 206.25 275.058594 206.84375 275.1875 207.285156 C 277.933594 216.890625 273.382812 226.714844 265.398438 231.117188 C 264.96875 231.355469 264.578125 231.855469 264.402344 232.320312 C 262.234375 238.066406 258.40625 242.203125 252.765625 244.65625 C 252.308594 244.855469 251.828125 245.273438 251.617188 245.714844 C 249.316406 250.488281 245.613281 253.675781 240.875 255.941406 C 236.105469 258.222656 231.726562 261.175781 227.417969 264.285156 C 220.585938 269.222656 212.941406 270.460938 204.800781 268.15625 C 203.667969 267.835938 202.636719 267.15625 201.507812 266.8125 C 200.746094 266.582031 199.882812 266.511719 199.089844 266.609375 C 197.539062 266.796875 196.007812 267.128906 194.476562 267.449219 C 194 267.550781 193.503906 267.722656 193.105469 267.996094 C 185.550781 273.199219 177.054688 273.3125 169.359375 268.371094 C 166.617188 266.609375 163.585938 265.285156 161.316406 262.828125 C 161.128906 262.625 160.695312 262.574219 160.375 262.578125 C 155.578125 262.597656 151.273438 260.84375 146.992188 258.9375 C 146.125 258.550781 145.175781 258.226562 144.238281 258.152344 C 139.101562 257.726562 135.015625 255.074219 130.929688 252.242188 C 127.097656 249.585938 124.289062 246.234375 122.636719 241.871094 C 122.4375 241.355469 122.007812 240.875 121.570312 240.511719 C 116.203125 236.007812 113.644531 230.246094 113.8125 223.25 C 113.824219 222.742188 113.945312 222.238281 113.992188 221.734375 C 114.039062 221.230469 114.058594 220.722656 114.089844 220.21875 C 113.992188 220.152344 113.894531 220.082031 113.796875 220.015625 C 113.417969 220.488281 112.984375 220.929688 112.675781 221.445312 C 111.644531 223.195312 110.640625 224.96875 109.65625 226.746094 C 109.265625 227.445312 108.875 228.15625 108.617188 228.910156 C 106.761719 234.324219 103.484375 238.503906 98.375 241.230469 C 96.03125 242.480469 93.945312 244.269531 91.527344 245.324219 C 88.796875 246.515625 85.824219 247.136719 82.964844 248.03125 C 81.351562 248.539062 79.773438 249.15625 78.152344 249.640625 C 69.703125 252.179688 60.273438 248.699219 55.308594 241.363281 C 54.394531 240.011719 53.007812 238.996094 51.917969 237.753906 C 46.21875 231.253906 44.878906 223.914062 47.933594 215.832031 C 48.457031 214.449219 48.710938 213.175781 48.636719 211.671875 C 48.386719 206.601562 49.949219 202.046875 52.972656 197.96875 C 53.359375 197.445312 53.59375 196.667969 53.578125 196.015625 C 53.515625 193.277344 53.625 190.574219 54.566406 187.863281 Z M 198.871094 201.957031 C 197.371094 199.332031 194.929688 198 192.148438 197.3125 C 191.460938 197.144531 190.222656 197.558594 189.847656 198.113281 C 188.867188 199.578125 188.03125 201.207031 187.488281 202.882812 C 186.722656 205.246094 187.726562 206.453125 190.191406 206.550781 C 190.4375 206.5625 190.683594 206.585938 190.941406 206.605469 C 191.425781 208.660156 191.476562 210.660156 190.722656 212.558594 C 190.121094 214.074219 189.246094 215.472656 187.363281 215.648438 C 186.015625 215.773438 185.222656 216.472656 185.296875 217.554688 C 185.378906 218.75 186.625 219.8125 187.828125 219.4375 C 189.09375 219.046875 190.464844 218.554688 191.410156 217.6875 C 192.699219 216.503906 193.621094 214.921875 194.695312 213.523438 C 194.914062 213.84375 195.25 214.328125 195.582031 214.816406 C 198.699219 219.386719 204.9375 218.242188 207.285156 214.6875 C 207.539062 214.308594 207.769531 213.875 207.875 213.433594 C 208.105469 212.488281 207.738281 211.722656 206.875 211.316406 C 205.992188 210.90625 205.226562 211.171875 204.648438 211.976562 C 204.328125 212.421875 204.011719 212.890625 203.617188 213.261719 C 202.671875 214.148438 200.335938 214.382812 199.464844 213.578125 C 197.328125 211.597656 196.421875 209.078125 196.375 206.222656 C 199.167969 205.417969 199.839844 204.300781 198.871094 201.953125 Z M 161.558594 184.882812 C 160.996094 185.035156 160.390625 185.109375 159.867188 185.355469 C 156.90625 186.757812 155.785156 189.640625 157.253906 191.996094 C 158.378906 193.808594 160.488281 194.742188 162.367188 194.261719 C 164.261719 193.773438 165.859375 191.699219 166.023438 189.515625 C 166.179688 187.453125 165.246094 186.128906 162.984375 185.242188 C 162.589844 185.089844 162.175781 185.003906 161.558594 184.878906 Z M 222.011719 173.308594 C 218.683594 171.601562 215.804688 172.632812 215.074219 175.792969 C 214.507812 178.25 215.457031 180.3125 217.542969 181.160156 C 219.445312 181.933594 221.625 181.050781 222.804688 179.03125 C 224.195312 176.65625 223.992188 174.859375 222.007812 173.308594 Z M 114.15625 219.675781 C 114.128906 219.703125 114.078125 219.726562 114.078125 219.753906 C 114.074219 219.785156 114.117188 219.820312 114.136719 219.847656 C 114.167969 219.824219 114.195312 219.796875 114.15625 219.675781 Z M 114.15625 219.675781 " fill-opacity="1" fill-rule="nonzero"/><path fill="#1c2324" d="M 198.914062 202.042969 C 199.84375 204.304688 199.171875 205.421875 196.375 206.226562 C 196.425781 209.082031 197.332031 211.601562 199.46875 213.582031 C 200.339844 214.386719 202.671875 214.15625 203.617188 213.265625 C 204.015625 212.894531 204.332031 212.425781 204.648438 211.980469 C 205.226562 211.175781 205.996094 210.910156 206.875 211.320312 C 207.738281 211.722656 208.105469 212.492188 207.875 213.4375 C 207.769531 213.878906 207.542969 214.3125 207.289062 214.691406 C 204.9375 218.246094 198.699219 219.390625 195.585938 214.820312 C 195.25 214.332031 194.914062 213.847656 194.699219 213.527344 C 193.625 214.925781 192.703125 216.507812 191.414062 217.691406 C 190.46875 218.558594 189.09375 219.050781 187.828125 219.441406 C 186.625 219.816406 185.382812 218.753906 185.300781 217.558594 C 185.226562 216.476562 186.019531 215.777344 187.363281 215.652344 C 189.246094 215.476562 190.125 214.078125 190.722656 212.5625 C 191.476562 210.664062 191.429688 208.664062 190.945312 206.609375 C 190.6875 206.589844 190.441406 206.566406 190.195312 206.554688 C 187.730469 206.457031 186.726562 205.25 187.492188 202.886719 C 188.035156 201.210938 188.867188 199.582031 189.851562 198.117188 C 190.226562 197.5625 191.464844 197.148438 192.152344 197.316406 C 194.933594 198 197.375 199.335938 198.917969 202.046875 Z M 198.914062 202.042969 " fill-opacity="1" fill-rule="nonzero"/><path fill="#1b2324" d="M 161.664062 184.886719 C 162.175781 185.007812 162.59375 185.089844 162.984375 185.242188 C 165.25 186.128906 166.183594 187.453125 166.027344 189.515625 C 165.859375 191.699219 164.265625 193.773438 162.367188 194.261719 C 160.492188 194.742188 158.382812 193.808594 157.253906 191.996094 C 155.789062 189.636719 156.90625 186.753906 159.871094 185.355469 C 160.390625 185.109375 160.996094 185.035156 161.667969 184.886719 Z M 161.664062 184.886719 " fill-opacity="1" fill-rule="nonzero"/><path fill="#1b2324" d="M 222.09375 173.355469 C 223.996094 174.859375 224.195312 176.660156 222.808594 179.035156 C 221.628906 181.050781 219.449219 181.933594 217.546875 181.160156 C 215.457031 180.3125 214.507812 178.25 215.074219 175.792969 C 215.804688 172.632812 218.6875 171.601562 222.097656 173.355469 Z M 222.09375 173.355469 " fill-opacity="1" fill-rule="nonzero"/><path fill="#ffffff" d="M 114.191406 219.722656 C 114.195312 219.796875 114.164062 219.824219 114.136719 219.851562 C 114.113281 219.820312 114.070312 219.785156 114.074219 219.757812 C 114.078125 219.726562 114.125 219.707031 114.191406 219.726562 Z M 114.191406 219.722656 " fill-opacity="1" fill-rule="nonzero"/><g fill="#8e7665" fill-opacity="1"><g transform="translate(29.272352, 174.9154)"><g><path d="M -14.390625 -6.265625 C -13.984375 -6.109375 -12.984375 -5.765625 -11.65625 -5.359375 C -10.328125 -4.953125 -8.671875 -4.484375 -7.046875 -3.984375 L -2.453125 -2.6875 C -1.125 -2.296875 -0.125 -2.015625 0.21875 -2 C 1.046875 -1.875 1.625 -2.390625 1.828125 -3.0625 C 2.03125 -3.75 1.84375 -4.546875 1.03125 -4.9375 C 0.953125 -4.96875 0.609375 -5.078125 -0.015625 -5.234375 C -0.6875 -5.40625 -1.390625 -5.625 -2.125 -5.84375 L -4.125 -6.40625 L -5.046875 -6.6875 C -4.765625 -7.484375 -4.359375 -8.953125 -3.953125 -10.359375 C -3.53125 -11.765625 -3.203125 -13.109375 -3 -13.890625 C -2.75 -14.8125 -3.328125 -15.53125 -3.90625 -15.734375 C -4.421875 -15.890625 -5.1875 -15.671875 -5.546875 -14.859375 C -5.796875 -14.171875 -6.21875 -12.90625 -6.640625 -11.515625 C -7.078125 -10.09375 -7.5625 -8.609375 -7.890625 -7.5625 L -8.421875 -7.71875 C -8.796875 -7.828125 -9.234375 -7.96875 -9.6875 -8.125 C -10.59375 -8.40625 -11.546875 -8.734375 -11.65625 -8.765625 C -12.40625 -9 -12.734375 -9.125 -12.875 -9.390625 C -13 -9.609375 -12.90625 -9.921875 -12.703125 -10.59375 L -12.34375 -11.796875 C -12.1875 -12.28125 -12.046875 -12.734375 -11.921875 -13.265625 C -11.625 -14.34375 -11.328125 -15.390625 -11.03125 -16.375 C -10.78125 -17.21875 -11.34375 -18.015625 -11.90625 -18.1875 C -12.53125 -18.421875 -13.421875 -18.109375 -13.765625 -16.984375 L -14.890625 -13.328125 C -15.078125 -12.59375 -15.3125 -11.859375 -15.515625 -11.15625 L -16.0625 -9.375 C -16.234375 -8.8125 -16.21875 -8.171875 -16.015625 -7.53125 C -15.796875 -6.890625 -15.25 -6.421875 -14.390625 -6.265625 Z M -14.390625 -6.265625 "/></g></g></g><g fill="#8e7665" fill-opacity="1"><g transform="translate(34.453929, 158.390838)"><g><path d="M -10.84375 -10.59375 C -11.328125 -11.546875 -11.140625 -12.875 -10.578125 -14.046875 C -9.953125 -15.234375 -8.90625 -16.25 -7.65625 -16.453125 C -6.375 -16.671875 -4.515625 -16.296875 -2.6875 -15.484375 C -0.84375 -14.640625 0.875 -13.359375 1.765625 -11.671875 C 2.234375 -10.75 2.25 -9.578125 1.796875 -8.515625 C 1.34375 -7.46875 0.53125 -6.546875 -0.609375 -6.203125 C -2.40625 -5.578125 -4.734375 -6.09375 -6.609375 -7.09375 C -8.5625 -8.0625 -10.234375 -9.4375 -10.84375 -10.59375 Z M -13.375 -9.3125 C -12.421875 -7.078125 -10.0625 -5.34375 -7.46875 -4.28125 C -4.875 -3.15625 -1.921875 -2.703125 0.09375 -3.5 C 1.703125 -3.984375 3.1875 -5.46875 4.09375 -7.28125 C 4.953125 -9.046875 5.265625 -11.078125 4.546875 -12.71875 C 3.5625 -14.9375 1.265625 -16.78125 -1.171875 -17.96875 C -3.59375 -19.09375 -6.3125 -19.609375 -8.28125 -19.34375 C -9.859375 -19.046875 -11.65625 -17.578125 -12.828125 -15.765625 C -13.96875 -13.84375 -14.40625 -11.46875 -13.375 -9.3125 Z M -13.375 -9.3125 "/></g></g></g><g fill="#8e7665" fill-opacity="1"><g transform="translate(42.788281, 140.408141)"><g><path d="M -9.328125 -11.953125 C -9.671875 -12.953125 -9.3125 -14.265625 -8.59375 -15.34375 C -7.828125 -16.4375 -6.640625 -17.296875 -5.390625 -17.34375 C -4.078125 -17.375 -2.28125 -16.765625 -0.578125 -15.71875 C 1.140625 -14.640625 2.65625 -13.125 3.3125 -11.328125 C 3.671875 -10.359375 3.5 -9.1875 2.921875 -8.203125 C 2.34375 -7.21875 1.40625 -6.421875 0.21875 -6.21875 C -1.625 -5.84375 -3.875 -6.671875 -5.609375 -7.921875 C -7.40625 -9.15625 -8.890625 -10.734375 -9.328125 -11.953125 Z M -12 -11.03125 C -11.359375 -8.6875 -9.25 -6.640625 -6.8125 -5.25 C -4.390625 -3.78125 -1.53125 -2.953125 0.546875 -3.453125 C 2.234375 -3.734375 3.890625 -5 5.03125 -6.65625 C 6.125 -8.28125 6.71875 -10.28125 6.203125 -12 C 5.546875 -14.3125 3.515625 -16.453125 1.25 -17.96875 C -1 -19.40625 -3.625 -20.28125 -5.609375 -20.28125 C -7.21875 -20.203125 -9.203125 -19 -10.609375 -17.34375 C -11.984375 -15.59375 -12.75 -13.3125 -12 -11.03125 Z M -12 -11.03125 "/></g></g></g><g fill="#8e7665" fill-opacity="1"><g transform="translate(53.469905, 123.706101)"><g><path d="M 0.078125 -2.625 C 0.71875 -2.125 1.3125 -2.125 1.828125 -2.375 C 2.296875 -2.609375 2.703125 -3.109375 3.09375 -3.578125 C 5.25 -6 6.625 -8.4375 6.75 -10.84375 C 6.921875 -13.234375 5.875 -15.5625 3.203125 -17.828125 C 0.28125 -20.28125 -2.390625 -20.734375 -4.8125 -19.921875 C -7.1875 -19.125 -9.359375 -17.015625 -11.3125 -14.4375 C -11.78125 -13.796875 -11.90625 -13.203125 -11.734375 -12.671875 C -11.53125 -12.15625 -11.234375 -11.71875 -10.828125 -11.390625 L -4.53125 -6.203125 L -2.140625 -4.21875 C -1.28125 -3.5625 -0.546875 -3.03125 0.078125 -2.625 Z M 1.09375 -5.40625 C 0.921875 -5.5 0.6875 -5.703125 0.328125 -5.984375 L -8.609375 -13.390625 C -7.4375 -15.140625 -5.90625 -16.484375 -4.140625 -17 C -2.40625 -17.5 -0.53125 -17.171875 1.28125 -15.671875 C 3.21875 -14.0625 3.9375 -12.484375 3.828125 -10.765625 C 3.6875 -9.078125 2.6875 -7.3125 1.09375 -5.40625 Z M 1.09375 -5.40625 "/></g></g></g><g fill="#8e7665" fill-opacity="1"><g transform="translate(66.398311, 108.730934)"><g/></g></g><g fill="#8e7665" fill-opacity="1"><g transform="translate(74.148069, 100.969775)"><g><path d="M 11.984375 -10.53125 C 12.90625 -10.953125 13.015625 -11.703125 12.71875 -12.28125 C 12.421875 -12.875 11.734375 -13.265625 11.046875 -13 C 10.71875 -12.90625 10.265625 -12.828125 10.0625 -12.859375 L 9.390625 -14.046875 C 9.140625 -14.609375 8.78125 -15.1875 8.625 -15.59375 C 8.09375 -16.453125 7.25 -16.390625 6.5625 -15.96875 C 5.9375 -15.578125 5.46875 -14.8125 5.859375 -14.265625 C 6.140625 -13.78125 6.40625 -13.28125 6.609375 -12.953125 L 6.828125 -12.5 L 6.9375 -12.375 C 6.328125 -12.296875 5.296875 -12.375 4.296875 -12.484375 C 3.3125 -12.5625 2.3125 -12.734375 1.828125 -12.90625 C 1.953125 -13.296875 1.96875 -14.21875 1.890625 -15.171875 C 1.78125 -16.15625 1.59375 -17.21875 1.1875 -18.03125 C 0.75 -19.015625 -0.25 -19.828125 -1.46875 -20.125 C -2.703125 -20.421875 -4.15625 -20.171875 -5.53125 -19.21875 C -6.578125 -18.40625 -7.171875 -17.203125 -7.3125 -15.984375 C -7.390625 -14.765625 -7.0625 -13.515625 -6.21875 -12.640625 C -5.5 -11.890625 -4.65625 -11.34375 -3.84375 -11.03125 C -3.046875 -10.609375 -2.265625 -10.46875 -1.90625 -10.390625 C -2.265625 -9.71875 -2.4375 -8.703125 -2.34375 -7.609375 C -2.25 -6.53125 -1.875 -5.25 -1.015625 -4.015625 C 0.078125 -2.40625 1.609375 -1.75 3.078125 -1.75 C 4.59375 -1.734375 6.078125 -2.359375 7.140625 -3.171875 C 8.1875 -3.984375 9 -4.984375 9.65625 -6.203125 C 10.359375 -7.421875 10.625 -8.71875 10.53125 -10.078125 C 10.640625 -10.0625 10.828125 -10.109375 11.046875 -10.1875 C 11.296875 -10.234375 11.609375 -10.34375 11.984375 -10.53125 Z M 5.59375 -5.546875 C 4.046875 -4.484375 2.953125 -4.21875 1.828125 -5.46875 C 1.09375 -6.21875 0.828125 -7.125 0.78125 -7.921875 C 0.734375 -8.734375 0.875 -9.453125 1.015625 -10.015625 C 1.8125 -9.890625 3.109375 -9.6875 4.34375 -9.625 C 5.65625 -9.53125 6.875 -9.484375 7.578125 -9.59375 C 7.671875 -9.046875 7.578125 -8.390625 7.21875 -7.5625 C 6.859375 -6.765625 6.328125 -6.09375 5.59375 -5.546875 Z M -4.046875 -14.75 C -4.734375 -15.515625 -4.40625 -16.515625 -3.734375 -17.125 C -3.09375 -17.671875 -2.0625 -17.8125 -1.28125 -16.8125 C -0.9375 -16.375 -0.84375 -15.640625 -0.84375 -14.890625 C -0.84375 -14.125 -0.859375 -13.4375 -0.921875 -13.140625 C -1.140625 -13.125 -1.65625 -13.25 -2.296875 -13.515625 C -2.890625 -13.75 -3.546875 -14.125 -4.046875 -14.75 Z M -4.046875 -14.75 "/></g></g></g><g fill="#8e7665" fill-opacity="1"><g transform="translate(91.897129, 87.767219)"><g/></g></g><g fill="#8e7665" fill-opacity="1"><g transform="translate(101.331328, 81.985744)"><g><path d="M 3.0625 -20.671875 C 2.34375 -20.5625 1.25 -20.421875 0.109375 -20.03125 C -1.03125 -19.59375 -2.3125 -18.90625 -3.375 -17.796875 C -5.015625 -16.125 -5.28125 -13.765625 -4.5 -11.875 C -4.140625 -10.921875 -3.515625 -10.140625 -2.65625 -9.515625 C -1.796875 -8.890625 -0.8125 -8.65625 0.34375 -8.796875 C 1.609375 -8.9375 2.921875 -9.390625 4.015625 -9.796875 C 5.171875 -10.203125 6.09375 -10.515625 6.5 -10.46875 C 7.203125 -10.296875 7.78125 -9.78125 8.09375 -9.09375 C 8.40625 -8.375 8.375 -7.46875 7.875 -6.5 C 7.59375 -6.03125 6.703125 -5.46875 5.765625 -5.125 C 4.734375 -4.71875 3.75 -4.5 3.15625 -4.875 C 2.25 -5.203125 1.5 -4.75 1.140625 -4.0625 C 0.84375 -3.390625 0.875 -2.46875 1.6875 -2.078125 C 3.21875 -1.328125 5.234375 -1.78125 6.953125 -2.640625 C 8.6875 -3.484375 10.1875 -4.8125 10.65625 -6.015625 C 11.1875 -7.375 11.1875 -8.9375 10.625 -10.265625 C 10.09375 -11.546875 8.984375 -12.609375 7.453125 -13 C 6.3125 -13.203125 5.109375 -12.890625 3.921875 -12.484375 C 2.75 -12.140625 1.59375 -11.609375 0.59375 -11.59375 C -0.46875 -11.484375 -1.3125 -12.03125 -1.71875 -12.8125 C -2.140625 -13.609375 -2.125 -14.609375 -1.53125 -15.484375 C -0.34375 -17.078125 0.96875 -17.71875 3.234375 -17.9375 C 4.59375 -18.046875 5.015625 -18.75 4.875 -19.4375 C 4.71875 -20.109375 4.046875 -20.765625 3.0625 -20.671875 Z M 3.0625 -20.671875 "/></g></g></g><g fill="#8e7665" fill-opacity="1"><g transform="translate(117.37908, 74.415316)"><g><path d="M -2.53125 -18.296875 C -2.5625 -18.296875 -2.953125 -17.96875 -3.25 -17.421875 C -3.546875 -16.84375 -3.71875 -16.046875 -3.1875 -15.015625 C -3.078125 -14.59375 -2.796875 -13.765625 -2.453125 -12.65625 L -1.203125 -9 C -0.75 -7.71875 -0.296875 -6.484375 0.0625 -5.421875 C 0.4375 -4.4375 0.71875 -3.65625 0.8125 -3.421875 C 1.484375 -1.9375 2.234375 -1.21875 3.1875 -0.9375 C 4.09375 -0.6875 5.15625 -0.875 6.59375 -1.328125 C 7.484375 -1.515625 8.71875 -2 9.890625 -2.53125 C 11.078125 -3.046875 12.21875 -3.625 12.859375 -4.03125 C 13.453125 -4.484375 13.609375 -5.359375 13.28125 -5.953125 C 12.890625 -6.40625 12.125 -6.703125 11.3125 -6.203125 C 10.78125 -5.9375 9.875 -5.53125 8.875 -5.15625 C 7.890625 -4.796875 6.828125 -4.390625 6.15625 -4.171875 C 5.5 -3.9375 4.984375 -3.8125 4.546875 -3.828125 C 4.15625 -3.828125 3.765625 -4.234375 3.40625 -5.046875 L 3.21875 -5.609375 C 3.09375 -5.984375 2.953125 -6.375 2.84375 -6.796875 L 2.453125 -7.90625 L 2.3125 -8.4375 C 3.140625 -8.609375 4.625 -9.1875 6.015625 -9.703125 C 7.421875 -10.21875 8.796875 -10.75 9.5 -11.015625 C 10.296875 -11.296875 10.5625 -12.078125 10.390625 -12.75 C 10.203125 -13.40625 9.5625 -13.90625 8.671875 -13.625 C 7.984375 -13.484375 6.671875 -13.0625 5.25 -12.59375 C 3.828125 -12.109375 2.3125 -11.625 1.21875 -11.25 L 1.046875 -11.734375 C 0.9375 -12.0625 0.8125 -12.390625 0.71875 -12.8125 C 0.4375 -13.59375 0.1875 -14.4375 0.15625 -14.546875 C -0.109375 -15.296875 -0.203125 -15.671875 -0.109375 -15.890625 C -0.0625 -16.15625 0.140625 -16.234375 0.65625 -16.4375 C 1.453125 -16.71875 2.453125 -17.09375 3.546875 -17.46875 C 4.609375 -17.828125 5.703125 -18.21875 6.625 -18.53125 C 7.390625 -18.796875 7.65625 -19.625 7.4375 -20.25 C 7.21875 -20.90625 6.5 -21.390625 5.40625 -21.015625 Z M -2.53125 -18.296875 "/></g></g></g><g fill="#8e7665" fill-opacity="1"><g transform="translate(134.503443, 68.753066)"><g><path d="M -1.34375 -13.046875 C -1.015625 -11.53125 -0.46875 -9.078125 0.140625 -6.671875 C 0.71875 -4.296875 1.328125 -1.921875 1.71875 -0.8125 C 1.90625 0.03125 2.84375 0.328125 3.515625 0.15625 C 4.234375 0.015625 4.78125 -0.640625 4.421875 -1.8125 C 4.203125 -2.453125 3.90625 -3.84375 3.625 -5.046875 C 3.453125 -5.671875 3.359375 -6.203125 3.25 -6.671875 L 3.09375 -7.453125 L 4.046875 -7.65625 C 4.46875 -7.75 4.890625 -7.84375 5.359375 -7.953125 C 6.265625 -8.140625 7.140625 -8.359375 7.625 -8.453125 C 7.90625 -7.984375 8.609375 -6.71875 9.296875 -5.484375 C 10.03125 -4.234375 10.734375 -2.953125 11.0625 -2.453125 C 11.40625 -1.84375 12.1875 -1.828125 12.8125 -2.1875 C 13.453125 -2.515625 13.875 -3.21875 13.46875 -4.015625 C 13.03125 -4.71875 12.390625 -5.90625 11.765625 -7.046875 L 10.40625 -9.59375 C 11.03125 -10.09375 11.78125 -11.859375 11.828125 -13.75 C 11.828125 -15.515625 11 -17.546875 9.078125 -18.75 C 8.09375 -19.4375 6.5625 -19.546875 5.0625 -19.453125 C 3.609375 -19.328125 2.15625 -18.953125 1.390625 -18.6875 C 0.03125 -18.359375 -0.765625 -18.046875 -1.28125 -17.59375 C -1.78125 -17.125 -1.890625 -16.40625 -1.8125 -15.34375 Z M 1.375 -14.390625 C 1.265625 -15.09375 1.28125 -15.453125 1.375 -15.671875 C 1.453125 -15.875 1.6875 -15.953125 2.25 -16.109375 L 4.171875 -16.5 C 5.015625 -16.6875 5.84375 -16.828125 6.234375 -16.875 C 7.375 -16.90625 8.265625 -15.859375 8.65625 -14.671875 C 9 -13.515625 9 -12.203125 8.375 -11.75 C 7.84375 -11.3125 6.71875 -10.921875 5.484375 -10.640625 C 4.25 -10.34375 2.984375 -10.109375 2.296875 -9.96875 Z M 1.375 -14.390625 "/></g></g></g><g fill="#8e7665" fill-opacity="1"><g transform="translate(152.612076, 65.158753)"><g><path d="M 9.453125 -0.703125 C 9.703125 -1.296875 10.0625 -2.4375 10.53125 -3.828125 C 10.984375 -5.21875 11.484375 -6.875 11.953125 -8.59375 C 12.390625 -10.296875 12.84375 -12.0625 13.296875 -13.609375 C 13.6875 -15.171875 14.03125 -16.515625 14.234375 -17.53125 C 14.390625 -18.21875 13.8125 -18.90625 13.265625 -19.171875 C 12.5625 -19.34375 11.71875 -19.046875 11.4375 -18.125 C 11.265625 -17.265625 10.984375 -16.109375 10.59375 -14.625 C 10.25 -13.1875 9.84375 -11.75 9.453125 -10.25 C 9.09375 -8.78125 8.703125 -7.453125 8.375 -6.265625 C 8.015625 -5.078125 7.8125 -4.328125 7.671875 -3.96875 C 7.4375 -4.40625 7.0625 -5.203125 6.515625 -6.34375 L 4.78125 -10.15625 C 3.609375 -12.921875 2.296875 -15.859375 1.671875 -17.53125 C 1.28125 -18.375 0.390625 -18.359375 -0.21875 -18.0625 C -0.78125 -17.6875 -1.25 -16.84375 -0.953125 -16.109375 L 0.6875 -12.296875 L 2.71875 -7.734375 C 4.125 -4.65625 5.5 -1.765625 6.390625 -0.46875 C 6.71875 0.046875 7.34375 0.390625 7.953125 0.421875 C 8.5625 0.453125 9.1875 0.125 9.453125 -0.703125 Z M 9.453125 -0.703125 "/></g></g></g><g fill="#8e7665" fill-opacity="1"><g transform="translate(171.723228, 63.962116)"><g><path d="M 7.65625 0.203125 C 7.796875 -0.5 7.90625 -1.609375 7.96875 -3.109375 C 8.03125 -4.609375 8.0625 -6.21875 8.09375 -7.90625 C 8.109375 -9.59375 8.109375 -11.21875 8.109375 -12.828125 L 8.078125 -16.609375 C 7.984375 -17.40625 7.1875 -17.6875 6.453125 -17.609375 C 5.703125 -17.515625 4.984375 -17.09375 5.203125 -16.40625 C 5.21875 -15.703125 5.234375 -14.484375 5.1875 -13.015625 L 5.09375 -8.234375 C 5.015625 -6.53125 4.984375 -4.875 4.9375 -3.421875 C 4.890625 -1.984375 4.875 -0.828125 4.84375 -0.1875 C 4.671875 0.53125 5.3125 0.984375 6.046875 1.09375 C 6.75 1.203125 7.546875 0.953125 7.65625 0.203125 Z M 7.65625 0.203125 "/></g></g></g><g fill="#8e7665" fill-opacity="1"><g transform="translate(187.364242, 64.675355)"><g><path d="M 7.765625 -15.875 C 6.15625 -15.15625 4.890625 -14.046875 4.015625 -12.53125 C 3.171875 -11.03125 2.609375 -9.390625 2.390625 -7.65625 C 2.125 -5.78125 2.390625 -4.03125 3.0625 -2.5625 C 3.671875 -1.078125 4.734375 0.09375 6.03125 0.75 C 7.328125 1.546875 9.109375 1.96875 10.75 1.96875 C 12.453125 1.921875 14 1.515625 14.796875 0.421875 C 15.359375 -0.21875 15.125 -1.015625 14.609375 -1.46875 C 14.03125 -1.953125 13.21875 -2.078125 12.640625 -1.359375 C 12.28125 -0.953125 11.421875 -0.796875 10.46875 -0.8125 C 9.53125 -0.859375 8.453125 -1.09375 7.765625 -1.421875 C 6.75 -1.9375 6.03125 -2.734375 5.609375 -3.84375 C 5.25 -4.96875 5.125 -6.140625 5.28125 -7.28125 C 5.765625 -10.40625 7.359375 -12.453125 9.03125 -13.1875 C 9.75 -13.484375 10.859375 -13.515625 11.84375 -13.328125 C 12.859375 -13.140625 13.71875 -12.75 14.0625 -12.328125 C 14.640625 -11.515625 15.546875 -11.625 16.140625 -12.078125 C 16.6875 -12.5625 16.953125 -13.375 16.359375 -14.015625 C 15.6875 -14.890625 14.25 -15.671875 12.625 -16.078125 C 10.9375 -16.484375 9.109375 -16.5 7.765625 -15.875 Z M 7.765625 -15.875 "/></g></g></g><g fill="#8e7665" fill-opacity="1"><g transform="translate(206.07239, 67.886312)"><g><path d="M 8.46875 -16.4375 C 8.4375 -16.4375 7.921875 -16.40625 7.375 -16.125 C 6.796875 -15.828125 6.203125 -15.265625 6.03125 -14.125 C 5.875 -13.703125 5.625 -12.859375 5.265625 -11.75 L 4.1875 -8.046875 C 3.8125 -6.75 3.46875 -5.46875 3.15625 -4.40625 C 2.90625 -3.390625 2.6875 -2.578125 2.640625 -2.3125 C 2.328125 -0.75 2.546875 0.296875 3.140625 1.0625 C 3.75 1.78125 4.734375 2.265625 6.15625 2.703125 C 7 3.0625 8.28125 3.390625 9.53125 3.625 C 10.8125 3.875 12.0625 4.078125 12.84375 4.09375 C 13.59375 4.078125 14.21875 3.453125 14.296875 2.78125 C 14.234375 2.171875 13.765625 1.5 12.828125 1.453125 C 12.234375 1.34375 11.25 1.15625 10.21875 0.890625 C 9.21875 0.609375 8.109375 0.328125 7.4375 0.125 C 6.75 -0.0625 6.265625 -0.265625 5.90625 -0.515625 C 5.609375 -0.734375 5.515625 -1.3125 5.703125 -2.171875 L 5.859375 -2.734375 C 5.96875 -3.109375 6.09375 -3.515625 6.25 -3.921875 L 6.578125 -5.046875 L 6.734375 -5.578125 C 7.53125 -5.25 9.0625 -4.875 10.5 -4.484375 C 11.96875 -4.078125 13.390625 -3.71875 14.09375 -3.53125 C 14.90625 -3.296875 15.578125 -3.8125 15.828125 -4.453125 C 16.046875 -5.09375 15.828125 -5.859375 14.9375 -6.140625 C 14.296875 -6.4375 12.96875 -6.859375 11.546875 -7.28125 C 10.109375 -7.703125 8.578125 -8.171875 7.46875 -8.5 L 7.625 -9 C 7.71875 -9.328125 7.8125 -9.671875 7.96875 -10.078125 C 8.203125 -10.875 8.46875 -11.6875 8.5 -11.796875 C 8.734375 -12.5625 8.875 -12.921875 9.046875 -13.0625 C 9.25 -13.25 9.453125 -13.203125 10.015625 -13.0625 C 10.8125 -12.84375 11.84375 -12.5625 12.953125 -12.25 C 14.03125 -11.9375 15.140625 -11.625 16.078125 -11.34375 C 16.859375 -11.125 17.546875 -11.640625 17.734375 -12.28125 C 17.921875 -12.9375 17.640625 -13.765625 16.53125 -14.09375 Z M 8.46875 -16.4375 "/></g></g></g></svg>